inDegrees=no
num_controls=7
num_derivatives=13
num_iterations=107
num_multipliers=7
num_parameters=0
num_slacks=7
num_states=26
objective=5.105038
objective_accelerations=0.393932
objective_balance=0.010497
objective_effort=0.355447
objective_height=4.298329
objective_ligament=0.046832
solver_duration=919.627341
status=Solve_Succeeded
success=true
DataType=double
version=3
OpenSimVersion=4.4-2022-07-23-0e9fedc
endheader
time	/jointset/ground_pelvis/pelvis_tilt/value	/jointset/ground_pelvis/pelvis_tx/value	/jointset/ground_pelvis/pelvis_ty/value	/jointset/hip_r/hip_flexion_r/value	/jointset/hip_r/hip_adduction_r/value	/jointset/hip_r/hip_rotation_r/value	/jointset/back/lumbar_extension/value	/jointset/patellofemoral_r/patellar_flexion_r/value	/jointset/knee_r/knee_flexion_r/value	/jointset/knee_r/knee_adduction_r/value	/jointset/knee_r/knee_rotation_r/value	/jointset/ankle_r/ankle_angle_r/value	/jointset/subtalar_r/subtalar_angle_r/value	/jointset/ground_pelvis/pelvis_tilt/speed	/jointset/ground_pelvis/pelvis_tx/speed	/jointset/ground_pelvis/pelvis_ty/speed	/jointset/hip_r/hip_flexion_r/speed	/jointset/hip_r/hip_adduction_r/speed	/jointset/hip_r/hip_rotation_r/speed	/jointset/back/lumbar_extension/speed	/jointset/patellofemoral_r/patellar_flexion_r/speed	/jointset/knee_r/knee_flexion_r/speed	/jointset/knee_r/knee_adduction_r/speed	/jointset/knee_r/knee_rotation_r/speed	/jointset/ankle_r/ankle_angle_r/speed	/jointset/subtalar_r/subtalar_angle_r/speed	/forceset/tau_hip_flexion_r	/forceset/tau_hip_adduction_r	/forceset/tau_hip_rotation_r	/forceset/tau_knee_flexion_r	/forceset/tau_ankle_angle_r	/forceset/tau_subtalar_angle_r	/forceset/tau_lumbar_extension	lambda_cid13_p0	lambda_cid14_p0	lambda_cid14_p1	lambda_cid14_p2	lambda_cid14_p3	lambda_cid14_p4	lambda_cid14_p5	/jointset/ground_pelvis/pelvis_tilt/accel	/jointset/ground_pelvis/pelvis_tx/accel	/jointset/ground_pelvis/pelvis_ty/accel	/jointset/hip_r/hip_flexion_r/accel	/jointset/hip_r/hip_adduction_r/accel	/jointset/hip_r/hip_rotation_r/accel	/jointset/back/lumbar_extension/accel	/jointset/patellofemoral_r/patellar_flexion_r/accel	/jointset/knee_r/knee_flexion_r/accel	/jointset/knee_r/knee_adduction_r/accel	/jointset/knee_r/knee_rotation_r/accel	/jointset/ankle_r/ankle_angle_r/accel	/jointset/subtalar_r/subtalar_angle_r/accel	gamma_cid13_p0	gamma_cid14_p0	gamma_cid14_p1	gamma_cid14_p2	gamma_cid14_p3	gamma_cid14_p4	gamma_cid14_p5
0	-0.003234054532115163	0.12962175774167	0.9339002692057502	0.1934208783645156	-0.2220237434196041	-0.2407099788662574	-0.2903791543005566	0.2311793314021478	0.2311793314021609	0.119196935861533	0.1687010642852323	0.08934340440958972	0.07149204842896056	0	0	0	0	0	0	0	0	0	0	0	0	0	0.101349833856663	-0.06605451248921813	0.0008175073581639006	-0.2578068268227454	0.1539498440487028	-0.07468349445702971	-0.01698813428283046	-29.75423790935594	3.5348162035783	-27.637212395283	0.05474241630989542	-14.35194156616636	-619.0864362671681	54.61136499603239	-0.9129157104102985	-1.183401794635846	-0.6332869758581686	7.064178771040625	0.2025736249118345	1.58531445669613	-5.546437076584992	8.254331281719441	8.25433128171932	-2.627995109498441	0.3337128743464761	2.779174071418021	1.055989367019315	3.140314901657938e-08	9.826012983232368e-09	-2.393525465131973e-07	1.932264784373564e-07	1.92798825957017e-08	6.382254538042337e-08	-2.548945270076688e-07
0.01	-0.003275127580444672	0.1295625380858073	0.9338695430307445	0.1937653958483263	-0.2220118424108676	-0.2406310934142467	-0.2906576091576262	0.2315844188559679	0.231584418856048	0.1190638379418432	0.1687152182646759	0.08947937052837543	0.07154616040664739	-0.008150018504389822	-0.01186614452754635	-0.006126059653425073	0.06866380171189625	0.00236556788019003	0.01571553951037487	-0.05539121339015903	0.08066632816201386	0.08066632816201404	-0.02648915496053401	0.002807260550326856	0.02698080981092593	0.01074366039001349	0.09479710205067268	-0.0736848163281701	0.001577145035480762	-0.2470770570429806	0.1355411742734927	-0.06301096243103654	-0.0120446163701677	-29.75871777355123	-1.804565257800192	-23.0911932687323	-1.140078544964109	-10.74492933978614	-620.3589238558276	63.18190522487721	-0.7563563324920339	-1.191548928281833	-0.5993763934673666	6.731527215448512	0.2513570853570903	1.555478845951663	-5.490499767095086	7.920102911888706	7.920102911889009	-2.639828309348585	0.2507393253411911	2.625675883111165	1.071729553437651	4.324724390867682e-08	1.069015662852267e-08	-3.023015422759914e-07	2.429894411243099e-07	2.657523012245778e-08	1.956658628865439e-08	-3.121474216471621e-07
0.02	-0.003395763096216778	0.1293839913553769	0.9337781340725285	0.1947893606180502	-0.2219767239801663	-0.2403968915375502	-0.2914809834079751	0.232785633457131	0.2327856334571388	0.118669757948312	0.1687567461855821	0.08987877303471881	0.07170534402392323	-0.01591249349032153	-0.02386541491354715	-0.01213655664209208	0.135889457191221	0.004643484391820394	0.03106328493049921	-0.1089838786549098	0.1592254294618805	0.1592254294618821	-0.05219641472175084	0.005474788299262805	0.05268727750910256	0.02101432791782939	0.08824437024417159	-0.08131512016727917	0.002336782712509108	-0.236347287263477	0.1171325044981296	-0.05133843040527795	-0.007101098457808951	-29.77177086595929	-7.079671157907636	-18.5490649266943	-2.316979818002763	-7.124873925587036	-620.6100441207793	71.50246657855499	-0.8354070067189797	-1.210026966326445	-0.6101744429065719	6.776549524526274	0.1850433511999065	1.511755638646024	-5.186727451503533	7.832885909289952	7.832885909290076	-2.471616069635032	0.3057663140682574	2.524305648868486	0.9613907945799052	5.509133880077425e-08	1.155430027381298e-08	-3.652505380387855e-07	2.927524038112635e-07	3.387057764921387e-08	-2.46893728031146e-08	-3.694003162866555e-07
0.03	-0.003592663652367548	0.1290857861699176	0.9336269977849097	0.1964777357031204	-0.2219195357694152	-0.2400114765593996	-0.292830611925711	0.2347619107145556	0.2347619107145272	0.1180231075575173	0.16882454061608	0.09052998100312454	0.07196490488876503	-0.02343544269336662	-0.03569743267322871	-0.01808668139042836	0.2014495398214621	0.006767481230914505	0.04593608738084888	-0.1606019352146907	0.2356673026191323	0.2356673026191275	-0.07697170918263969	0.008059701746834144	0.07745546169018058	0.0308413386491706	0.08473798370533851	-0.07686876189612303	0.002493910186490312	-0.2337422314449039	0.1145774227276564	-0.05254606467287429	-0.003957941222233527	-29.79289386802384	-7.986854560584983	-19.24162331222371	-2.19601104476856	-7.046356381281412	-621.2146679260502	69.34317466436242	-0.7059094151328846	-1.158053950617048	-0.5868336838400654	6.395336883530701	0.2220815201944026	1.462556662115719	-5.098361307131873	7.49541904248215	7.49541904248105	-2.456219642094843	0.2312508547574699	2.438253000641208	0.9848577986037886	5.47245568869008e-08	5.097554672430485e-09	-3.4817092196096e-07	2.976063305858152e-07	3.841280054587449e-08	-8.334340795937146e-08	-3.691456855555746e-07
